<?xml version="1.0" encoding="iso-8859-1"?>
<!-- Generator: Adobe Illustrator 28.4.1, SVG Export Plug-In . SVG Version: 6.00 Build 0)  -->
<svg version="1.1" baseProfile="basic" id="Layer_1"
	 xmlns="http://www.w3.org/2000/svg" xmlns:xlink="http://www.w3.org/1999/xlink" x="0px" y="0px" viewBox="0 0 24 24"
	 xml:space="preserve">
<g>
	<g>
		<g id="surface4808_00000063612496920816980770000009803469116742823601_">
			<path style="fill:none;stroke:#000000;stroke-width:1.5;stroke-linecap:round;stroke-linejoin:round;stroke-miterlimit:10;" d="
				M12,3.75c-2.747,0-4.863,0.182-6.374,0.387C3.982,4.36,2.75,5.751,2.75,7.41v9.179c0,1.66,1.232,3.05,2.876,3.273
				C7.137,20.068,9.253,20.25,12,20.25c2.747,0,4.863-0.182,6.374-0.387c1.645-0.223,2.876-1.613,2.876-3.273V7.41
				c0-1.66-1.232-3.05-2.876-3.273C16.863,3.932,14.747,3.75,12,3.75z"/>
		</g>
	</g>
</g>
<path d="M15.214,11.205l-3.819-2.262C10.779,8.578,10,9.022,10,9.738v4.525c0,0.716,0.779,1.16,1.395,0.795l3.819-2.262
	C15.818,12.437,15.818,11.563,15.214,11.205z"/>
</svg>